<svg width="103" height="24" viewBox="0 0 103 24" fill="none" xmlns="http://www.w3.org/2000/svg">
<path d="M102.718 8.09106L98.8327 19.0002H95.9918L92.1069 8.09106H94.8484L97.3555 16.1948H97.4691L99.9833 8.09106H102.718Z" fill="#F7F7F7"/>
<path d="M87.2599 19.2132C86.1662 19.2132 85.2216 18.9859 84.4261 18.5314C83.6354 18.0721 83.027 17.4234 82.6008 16.5853C82.1747 15.7425 81.9616 14.7506 81.9616 13.6095C81.9616 12.4873 82.1747 11.5025 82.6008 10.6549C83.0317 9.80267 83.633 9.13979 84.4048 8.6663C85.1766 8.18808 86.0833 7.94897 87.125 7.94897C87.7973 7.94897 88.4318 8.05788 89.0284 8.27568C89.6297 8.48875 90.16 8.82019 90.6193 9.27C91.0833 9.71981 91.4479 10.2927 91.713 10.9887C91.9782 11.68 92.1108 12.5039 92.1108 13.4603V14.2487H83.169V12.5157H89.6463C89.6415 12.0233 89.535 11.5853 89.3267 11.2018C89.1183 10.8136 88.8271 10.5082 88.4531 10.2856C88.0838 10.0631 87.6529 9.95181 87.1605 9.95181C86.6349 9.95181 86.1733 10.0797 85.7755 10.3353C85.3778 10.5863 85.0677 10.9177 84.8451 11.3297C84.6273 11.7369 84.5161 12.1843 84.5113 12.672V14.1848C84.5113 14.8192 84.6273 15.3637 84.8593 15.8183C85.0913 16.2681 85.4157 16.6137 85.8324 16.8552C86.249 17.092 86.7367 17.2103 87.2954 17.2103C87.6695 17.2103 88.008 17.1583 88.311 17.0541C88.6141 16.9452 88.8769 16.7866 89.0994 16.5782C89.3219 16.3699 89.49 16.1119 89.6037 15.8041L92.0042 16.074C91.8527 16.7084 91.5639 17.2624 91.1377 17.7359C90.7163 18.2047 90.1766 18.5692 89.5184 18.8297C88.8603 19.0853 88.1074 19.2132 87.2599 19.2132Z" fill="#F7F7F7"/>
<path d="M76.4044 19.2132C75.3107 19.2132 74.3661 18.9859 73.5706 18.5314C72.7799 18.0721 72.1715 17.4234 71.7453 16.5853C71.3192 15.7425 71.1061 14.7506 71.1061 13.6095C71.1061 12.4873 71.3192 11.5025 71.7453 10.6549C72.1762 9.80267 72.7775 9.13979 73.5493 8.6663C74.3211 8.18808 75.2278 7.94897 76.2695 7.94897C76.9418 7.94897 77.5763 8.05788 78.1729 8.27568C78.7742 8.48875 79.3045 8.82019 79.7638 9.27C80.2278 9.71981 80.5924 10.2927 80.8576 10.9887C81.1227 11.68 81.2553 12.5039 81.2553 13.4603V14.2487H72.3135V12.5157H78.7908C78.7861 12.0233 78.6795 11.5853 78.4712 11.2018C78.2629 10.8136 77.9717 10.5082 77.5976 10.2856C77.2283 10.0631 76.7974 9.95181 76.305 9.95181C75.7794 9.95181 75.3178 10.0797 74.9201 10.3353C74.5223 10.5863 74.2122 10.9177 73.9897 11.3297C73.7719 11.7369 73.6606 12.1843 73.6559 12.672V14.1848C73.6559 14.8192 73.7719 15.3637 74.0039 15.8183C74.2359 16.2681 74.5602 16.6137 74.9769 16.8552C75.3935 17.092 75.8812 17.2103 76.4399 17.2103C76.814 17.2103 77.1525 17.1583 77.4556 17.0541C77.7586 16.9452 78.0214 16.7866 78.2439 16.5782C78.4665 16.3699 78.6345 16.1119 78.7482 15.8041L81.1488 16.074C80.9972 16.7084 80.7084 17.2624 80.2823 17.7359C79.8609 18.2047 79.3211 18.5692 78.663 18.8297C78.0048 19.0853 77.252 19.2132 76.4044 19.2132Z" fill="#F7F7F7"/>
<path d="M63.9811 15.5767L63.974 12.4731H64.386L68.3064 8.09095H71.3107L66.4882 13.4603H65.9556L63.9811 15.5767ZM61.6374 19V4.45459H64.2084V19H61.6374ZM68.484 19L64.9328 14.0356L66.6658 12.2245L71.5593 19H68.484Z" fill="#F7F7F7"/>
<path d="M57.4226 19V8.09095H59.9936V19H57.4226ZM58.7152 6.54266C58.308 6.54266 57.9576 6.40772 57.664 6.13783C57.3705 5.86321 57.2237 5.53413 57.2237 5.15061C57.2237 4.76235 57.3705 4.43328 57.664 4.1634C57.9576 3.88878 58.308 3.75146 58.7152 3.75146C59.1271 3.75146 59.4775 3.88878 59.7663 4.1634C60.0599 4.43328 60.2066 4.76235 60.2066 5.15061C60.2066 5.53413 60.0599 5.86321 59.7663 6.13783C59.4775 6.40772 59.1271 6.54266 58.7152 6.54266Z" fill="#F7F7F7"/>
<path d="M56.2723 8.09093V10.0796H50.001V8.09093H56.2723ZM51.5493 5.47729H54.1204V15.7188C54.1204 16.0644 54.1724 16.3296 54.2766 16.5142C54.3855 16.6942 54.5276 16.8173 54.7027 16.8835C54.8779 16.9498 55.0721 16.983 55.2851 16.983C55.4461 16.983 55.5929 16.9711 55.7255 16.9475C55.8628 16.9238 55.9669 16.9025 56.038 16.8835L56.4712 18.8935C56.3339 18.9408 56.1374 18.9929 55.8817 19.0497C55.6308 19.1066 55.323 19.1397 54.9584 19.1492C54.3145 19.1681 53.7345 19.071 53.2184 18.858C52.7023 18.6402 52.2927 18.304 51.9897 17.8495C51.6914 17.3949 51.5446 16.8267 51.5493 16.1449V5.47729Z" fill="#F7F7F7"/>
<path d="M49.0852 4.45459V19H46.4503V4.45459H49.0852Z" fill="#F7F7F7"/>
<path d="M40.7318 4.45459V19H38.1608V4.45459H40.7318Z" fill="#F7F7F7"/>
<path d="M33.946 19V8.09095H36.517V19H33.946ZM35.2386 6.54266C34.8314 6.54266 34.481 6.40772 34.1875 6.13783C33.8939 5.86321 33.7471 5.53413 33.7471 5.15061C33.7471 4.76235 33.8939 4.43328 34.1875 4.1634C34.481 3.88878 34.8314 3.75146 35.2386 3.75146C35.6505 3.75146 36.0009 3.88878 36.2897 4.1634C36.5833 4.43328 36.7301 4.76235 36.7301 5.15061C36.7301 5.53413 36.5833 5.86321 36.2897 6.13783C36.0009 6.40772 35.6505 6.54266 35.2386 6.54266Z" fill="#F7F7F7"/>
<path d="M33.1669 8.09106L29.2819 19.0002H26.441L22.5561 8.09106H25.2976L27.8047 16.1948H27.9183L30.4325 8.09106H33.1669Z" fill="#F7F7F7"/>
<path d="M16.468 19.2203C15.7767 19.2203 15.1541 19.0972 14.6001 18.851C14.0509 18.6 13.6153 18.2307 13.2933 17.743C12.9761 17.2553 12.8174 16.654 12.8174 15.939C12.8174 15.3235 12.9311 14.8145 13.1584 14.412C13.3856 14.0096 13.6958 13.6876 14.0888 13.4461C14.4817 13.2047 14.9245 13.0224 15.4169 12.8993C15.914 12.7714 16.4278 12.6791 16.9581 12.6223C17.5973 12.556 18.1157 12.4968 18.5135 12.4447C18.9112 12.3879 19.2 12.3027 19.3799 12.189C19.5646 12.0707 19.6569 11.8884 19.6569 11.6422V11.5995C19.6569 11.0645 19.4983 10.6502 19.1811 10.3566C18.8638 10.0631 18.4069 9.9163 17.8103 9.9163C17.1806 9.9163 16.6811 10.0536 16.3118 10.3282C15.9472 10.6029 15.701 10.9272 15.5731 11.3012L13.1726 10.9603C13.362 10.2975 13.6745 9.74348 14.1101 9.29841C14.5457 8.84859 15.0783 8.51242 15.7081 8.28988C16.3378 8.06261 17.0338 7.94897 17.7961 7.94897C18.3217 7.94897 18.8449 8.01053 19.3657 8.13363C19.8866 8.25674 20.3624 8.46034 20.7933 8.74443C21.2242 9.02378 21.5698 9.40494 21.8302 9.88789C22.0954 10.3708 22.228 10.9745 22.228 11.699V19.0001H19.7564V17.5015H19.6711C19.5149 17.8046 19.2947 18.0887 19.0106 18.3538C18.7313 18.6142 18.3785 18.8249 17.9524 18.9859C17.531 19.1422 17.0362 19.2203 16.468 19.2203ZM17.1356 17.3311C17.6517 17.3311 18.0992 17.2293 18.478 17.0257C18.8567 16.8173 19.1479 16.5427 19.3515 16.2018C19.5599 15.8609 19.664 15.4892 19.664 15.0868V13.8012C19.5835 13.8675 19.4462 13.9291 19.2521 13.9859C19.0627 14.0427 18.8496 14.0924 18.6129 14.1351C18.3762 14.1777 18.1418 14.2155 17.9098 14.2487C17.6778 14.2818 17.4765 14.3102 17.3061 14.3339C16.9226 14.386 16.5793 14.4712 16.2762 14.5896C15.9732 14.708 15.7341 14.8737 15.5589 15.0868C15.3837 15.2951 15.2961 15.565 15.2961 15.8964C15.2961 16.3699 15.469 16.7274 15.8146 16.9689C16.1602 17.2103 16.6006 17.3311 17.1356 17.3311Z" fill="#F7F7F7"/>
<path d="M1.43463 19V4.45459H6.88918C8.0066 4.45459 8.9441 4.64872 9.70168 5.03698C10.464 5.42523 11.0393 5.96974 11.4275 6.6705C11.8205 7.36652 12.017 8.17855 12.017 9.10658C12.017 10.0393 11.8182 10.849 11.4204 11.5356C11.0274 12.2174 10.4474 12.7453 9.68037 13.1194C8.91332 13.4887 7.97109 13.6733 6.85367 13.6733H2.96872V11.4858H6.49855C7.15196 11.4858 7.687 11.3959 8.10367 11.216C8.52033 11.0313 8.8281 10.7638 9.02696 10.4134C9.23056 10.0583 9.33236 9.62268 9.33236 9.10658C9.33236 8.59048 9.23056 8.15014 9.02696 7.78556C8.82336 7.41624 8.51323 7.13688 8.09656 6.94749C7.6799 6.75336 7.14249 6.65629 6.48435 6.65629H4.06957V19H1.43463ZM8.94884 12.4091L12.5497 19H9.60935L6.07242 12.4091H8.94884Z" fill="#F7F7F7"/>
</svg>
